<mxfile host="app.diagrams.net" agent="Mozilla/5.0 (Windows NT 10.0; Win64; x64) AppleWebKit/537.36 (KHTML, like Gecko) Chrome/130.0.0.0 Safari/537.36" version="24.8.4">
  <diagram name="第 1 页" id="XCElDRBBR-Usxk6qokSl">
    <mxGraphModel dx="2074" dy="1098" grid="1" gridSize="10" guides="1" tooltips="1" connect="1" arrows="1" fold="1" page="1" pageScale="1" pageWidth="827" pageHeight="1169" math="0" shadow="0">
      <root>
        <mxCell id="0" />
        <mxCell id="1" parent="0" />
        <mxCell id="Bp3mLdf9G4zY9HYmWldy-1" value="" style="rounded=1;whiteSpace=wrap;html=1;fillColor=#dae8fc;strokeColor=#6c8ebf;" vertex="1" parent="1">
          <mxGeometry x="325" y="403" width="645" height="130" as="geometry" />
        </mxCell>
        <mxCell id="Bp3mLdf9G4zY9HYmWldy-2" value="" style="rounded=1;whiteSpace=wrap;html=1;fillColor=#dae8fc;strokeColor=#6c8ebf;" vertex="1" parent="1">
          <mxGeometry x="325" y="220" width="645" height="130" as="geometry" />
        </mxCell>
        <mxCell id="Bp3mLdf9G4zY9HYmWldy-4" value="" style="shape=flexArrow;endArrow=classic;html=1;rounded=0;" edge="1" parent="1">
          <mxGeometry width="50" height="50" relative="1" as="geometry">
            <mxPoint x="110" y="298" as="sourcePoint" />
            <mxPoint x="310" y="300" as="targetPoint" />
          </mxGeometry>
        </mxCell>
        <mxCell id="Bp3mLdf9G4zY9HYmWldy-5" value="请求新增Bo" style="text;html=1;align=center;verticalAlign=middle;resizable=0;points=[];autosize=1;strokeColor=none;fillColor=none;" vertex="1" parent="1">
          <mxGeometry x="170" y="250" width="90" height="30" as="geometry" />
        </mxCell>
        <mxCell id="Bp3mLdf9G4zY9HYmWldy-8" value="" style="edgeStyle=orthogonalEdgeStyle;rounded=0;orthogonalLoop=1;jettySize=auto;html=1;" edge="1" parent="1" source="Bp3mLdf9G4zY9HYmWldy-9" target="Bp3mLdf9G4zY9HYmWldy-15">
          <mxGeometry relative="1" as="geometry" />
        </mxCell>
        <mxCell id="Bp3mLdf9G4zY9HYmWldy-9" value="新增方法前置" style="rounded=0;whiteSpace=wrap;html=1;" vertex="1" parent="1">
          <mxGeometry x="414" y="260" width="120" height="60" as="geometry" />
        </mxCell>
        <mxCell id="Bp3mLdf9G4zY9HYmWldy-10" value="" style="edgeStyle=orthogonalEdgeStyle;rounded=0;orthogonalLoop=1;jettySize=auto;html=1;" edge="1" parent="1" source="Bp3mLdf9G4zY9HYmWldy-11" target="Bp3mLdf9G4zY9HYmWldy-17">
          <mxGeometry relative="1" as="geometry" />
        </mxCell>
        <mxCell id="Bp3mLdf9G4zY9HYmWldy-11" value="修改方法前置" style="rounded=0;whiteSpace=wrap;html=1;" vertex="1" parent="1">
          <mxGeometry x="414" y="438" width="120" height="60" as="geometry" />
        </mxCell>
        <mxCell id="Bp3mLdf9G4zY9HYmWldy-13" value="修改" style="text;html=1;align=center;verticalAlign=middle;resizable=0;points=[];autosize=1;strokeColor=none;fillColor=none;" vertex="1" parent="1">
          <mxGeometry x="325" y="408" width="50" height="30" as="geometry" />
        </mxCell>
        <mxCell id="Bp3mLdf9G4zY9HYmWldy-14" value="" style="edgeStyle=orthogonalEdgeStyle;rounded=0;orthogonalLoop=1;jettySize=auto;html=1;" edge="1" parent="1" source="Bp3mLdf9G4zY9HYmWldy-15" target="Bp3mLdf9G4zY9HYmWldy-18">
          <mxGeometry relative="1" as="geometry" />
        </mxCell>
        <mxCell id="Bp3mLdf9G4zY9HYmWldy-15" value="传递新增Bo，执行真正的新增方法" style="rounded=0;whiteSpace=wrap;html=1;" vertex="1" parent="1">
          <mxGeometry x="614" y="260" width="120" height="60" as="geometry" />
        </mxCell>
        <mxCell id="Bp3mLdf9G4zY9HYmWldy-16" value="" style="edgeStyle=orthogonalEdgeStyle;rounded=0;orthogonalLoop=1;jettySize=auto;html=1;" edge="1" parent="1" source="Bp3mLdf9G4zY9HYmWldy-17" target="Bp3mLdf9G4zY9HYmWldy-19">
          <mxGeometry relative="1" as="geometry" />
        </mxCell>
        <mxCell id="Bp3mLdf9G4zY9HYmWldy-17" value="传递修改Bo，执行真正的修改方法" style="rounded=0;whiteSpace=wrap;html=1;" vertex="1" parent="1">
          <mxGeometry x="614" y="438" width="120" height="60" as="geometry" />
        </mxCell>
        <mxCell id="Bp3mLdf9G4zY9HYmWldy-18" value="新增方法后置" style="rounded=0;whiteSpace=wrap;html=1;" vertex="1" parent="1">
          <mxGeometry x="814" y="260" width="120" height="60" as="geometry" />
        </mxCell>
        <mxCell id="Bp3mLdf9G4zY9HYmWldy-19" value="修改方法后置" style="rounded=0;whiteSpace=wrap;html=1;" vertex="1" parent="1">
          <mxGeometry x="814" y="438" width="120" height="60" as="geometry" />
        </mxCell>
        <mxCell id="Bp3mLdf9G4zY9HYmWldy-20" value="&lt;h1 style=&quot;margin-top: 0px;&quot;&gt;&lt;br&gt;&lt;/h1&gt;" style="text;html=1;whiteSpace=wrap;overflow=hidden;rounded=0;" vertex="1" parent="1">
          <mxGeometry x="70" y="525" width="180" height="145" as="geometry" />
        </mxCell>
        <mxCell id="Bp3mLdf9G4zY9HYmWldy-21" value="新增接口" style="text;html=1;align=center;verticalAlign=middle;resizable=0;points=[];autosize=1;strokeColor=none;fillColor=none;" vertex="1" parent="1">
          <mxGeometry x="600" y="190" width="70" height="30" as="geometry" />
        </mxCell>
        <mxCell id="Bp3mLdf9G4zY9HYmWldy-22" value="修改接口" style="text;html=1;align=center;verticalAlign=middle;resizable=0;points=[];autosize=1;strokeColor=none;fillColor=none;" vertex="1" parent="1">
          <mxGeometry x="612.5" y="533" width="70" height="30" as="geometry" />
        </mxCell>
        <mxCell id="Bp3mLdf9G4zY9HYmWldy-23" value="新增" style="text;html=1;align=center;verticalAlign=middle;resizable=0;points=[];autosize=1;strokeColor=none;fillColor=none;" vertex="1" parent="1">
          <mxGeometry x="340" y="268" width="50" height="30" as="geometry" />
        </mxCell>
        <mxCell id="Bp3mLdf9G4zY9HYmWldy-24" value="请求修改Bo" style="text;html=1;align=center;verticalAlign=middle;resizable=0;points=[];autosize=1;strokeColor=none;fillColor=none;" vertex="1" parent="1">
          <mxGeometry x="160" y="408" width="90" height="30" as="geometry" />
        </mxCell>
        <mxCell id="Bp3mLdf9G4zY9HYmWldy-25" value="" style="shape=flexArrow;endArrow=classic;html=1;rounded=0;" edge="1" parent="1">
          <mxGeometry width="50" height="50" relative="1" as="geometry">
            <mxPoint x="115" y="470" as="sourcePoint" />
            <mxPoint x="315" y="472" as="targetPoint" />
          </mxGeometry>
        </mxCell>
      </root>
    </mxGraphModel>
  </diagram>
</mxfile>
